# xmcd
#
# Track frame offsets: 
#        183
#        12275
#        25275
#        39700
#        52645
#        62915
#        84608
#        100410
#        112108
#        125675
#        136663
#        147098
#        167803
#        178688
#        188750
#        200938
#
# Disc length: 2809 seconds
#
# Revision: 2
# Processed by: cddbd v1.5.2PL0 Copyright (c) Steve Scherf et al.
# Submitted via: ExactAudioCopyFreeDBPlugin 1.0
#
DISCID=e50af710
DTITLE=Various Artist - Hallo, Guten Morgen Deutschland
DYEAR=1991
DGENRE=Country
TTITLE0=Tom Astor - Hallo, Guten Morgen Deutschland
TTITLE1=Truck Stop - Die Frau mit dem Gurt
TTITLE2=Gunter Gabriel - Deutschland ist...
TTITLE3=Dä drüjje Piter - Sie ist ein Truckerfan
TTITLE4=Peter Held - Gib Gas
TTITLE5=Jonny Hill - Ruf Teddybaer eins vier
TTITLE6=Truck Stop - Ich moecht so gern Dave Duddley hör'n
TTITLE7=Dave Dudley - Six Days On The Road
TTITLE8=Tom Astor - Irgendwo am Horizont
TTITLE9=Peter Held - Taxi Driver
TTITLE10=Jonny Hill - König der Landstraße
TTITLE11=Gunter Gabriel - Er ist ein Kerl (der 30 Tonner-Diesel)
TTITLE12=Western Union - Zwei Trucker wie wir
TTITLE13=Dave Dudley - Truck Driving Son Of A Gun
TTITLE14=Jonny Hill - Ich bin überall zu Haus
TTITLE15=Tom Astor - Sicht weg, Gas weg
EXTD=
EXTT0=
EXTT1=
EXTT2=
EXTT3=
EXTT4=
EXTT5=
EXTT6=
EXTT7=
EXTT8=
EXTT9=
EXTT10=
EXTT11=
EXTT12=
EXTT13=
EXTT14=
EXTT15=
PLAYORDER=
